<svg class="main-svg" xmlns="http://www.w3.org/2000/svg" xmlns:xlink="http://www.w3.org/1999/xlink" width="700" height="450" style="" viewBox="0 0 700 450"><rect x="0" y="0" width="700" height="450" style="fill: rgb(255, 255, 255); fill-opacity: 1;"/><defs id="defs-cf0f89"><g class="clips"><clipPath id="clipcf0f89xyplot" class="plotclip"><rect width="640" height="278"/></clipPath><clipPath class="axesclip" id="clipcf0f89x"><rect x="55" y="0" width="640" height="450"/></clipPath><clipPath class="axesclip" id="clipcf0f89y"><rect x="0" y="60" width="700" height="278"/></clipPath><clipPath class="axesclip" id="clipcf0f89xy"><rect x="55" y="60" width="640" height="278"/></clipPath></g><g class="gradients"/><g class="patterns"/></defs><g class="bglayer"/><g class="layer-below"><g class="imagelayer"/><g class="shapelayer"/></g><g class="cartesianlayer"><g class="subplot xy"><g class="layer-subplot"><g class="shapelayer"/><g class="imagelayer"/></g><g class="minor-gridlayer"><g class="x"/><g class="y"/></g><g class="gridlayer"><g class="x"><path class="xgrid crisp" transform="translate(96.63,0)" d="M0,60v278" style="stroke: rgb(235, 240, 248); stroke-opacity: 1; stroke-width: 1px;"/><path class="xgrid crisp" transform="translate(169.47,0)" d="M0,60v278" style="stroke: rgb(235, 240, 248); stroke-opacity: 1; stroke-width: 1px;"/><path class="xgrid crisp" transform="translate(242.32,0)" d="M0,60v278" style="stroke: rgb(235, 240, 248); stroke-opacity: 1; stroke-width: 1px;"/><path class="xgrid crisp" transform="translate(315.16,0)" d="M0,60v278" style="stroke: rgb(235, 240, 248); stroke-opacity: 1; stroke-width: 1px;"/><path class="xgrid crisp" transform="translate(388.01,0)" d="M0,60v278" style="stroke: rgb(235, 240, 248); stroke-opacity: 1; stroke-width: 1px;"/><path class="xgrid crisp" transform="translate(460.85,0)" d="M0,60v278" style="stroke: rgb(235, 240, 248); stroke-opacity: 1; stroke-width: 1px;"/><path class="xgrid crisp" transform="translate(533.7,0)" d="M0,60v278" style="stroke: rgb(235, 240, 248); stroke-opacity: 1; stroke-width: 1px;"/><path class="xgrid crisp" transform="translate(606.54,0)" d="M0,60v278" style="stroke: rgb(235, 240, 248); stroke-opacity: 1; stroke-width: 1px;"/><path class="xgrid crisp" transform="translate(679.39,0)" d="M0,60v278" style="stroke: rgb(235, 240, 248); stroke-opacity: 1; stroke-width: 1px;"/></g><g class="y"><path class="ygrid crisp" transform="translate(0,310)" d="M55,0h640" style="stroke: rgb(235, 240, 248); stroke-opacity: 1; stroke-width: 1px;"/><path class="ygrid crisp" transform="translate(0,270.65)" d="M55,0h640" style="stroke: rgb(235, 240, 248); stroke-opacity: 1; stroke-width: 1px;"/><path class="ygrid crisp" transform="translate(0,231.3)" d="M55,0h640" style="stroke: rgb(235, 240, 248); stroke-opacity: 1; stroke-width: 1px;"/><path class="ygrid crisp" transform="translate(0,191.95)" d="M55,0h640" style="stroke: rgb(235, 240, 248); stroke-opacity: 1; stroke-width: 1px;"/><path class="ygrid crisp" transform="translate(0,152.6)" d="M55,0h640" style="stroke: rgb(235, 240, 248); stroke-opacity: 1; stroke-width: 1px;"/><path class="ygrid crisp" transform="translate(0,113.25)" d="M55,0h640" style="stroke: rgb(235, 240, 248); stroke-opacity: 1; stroke-width: 1px;"/></g></g><g class="zerolinelayer"><path class="yzl zl crisp" transform="translate(0,73.9)" d="M55,0h640" style="stroke: rgb(235, 240, 248); stroke-opacity: 1; stroke-width: 2px;"/></g><path class="xlines-below"/><path class="ylines-below"/><g class="overlines-below"/><g class="xaxislayer-below"/><g class="yaxislayer-below"/><g class="overaxes-below"/><g class="plot" transform="translate(55,60)" clip-path="url(#clipcf0f89xyplot)"><g class="scatterlayer mlayer"><g class="trace scatter tracef68d08" style="stroke-miterlimit: 2; opacity: 1;"><g class="fills"/><g class="errorbars"/><g class="lines"><path class="js-line" d="M0,13.9L10.41,13.9L15.61,65.84L20.81,75.48L26.02,65.82L31.22,37.72L36.42,37.72L41.63,37.72L46.83,28.34L52.03,13.9L57.24,13.9L62.44,13.9L67.64,34.26L78.05,34.26L83.25,37.91L88.46,41.75L93.66,71.68L98.86,127.18L104.07,172.65L114.47,172.65L119.67,195.85L124.88,183.05L130.08,211.45L135.28,247.79L140.49,261.18L156.1,260.82L161.3,241.39L166.5,208.05L171.71,145.25L176.91,106.56L182.11,106.56L187.32,106.56L192.52,95.08L197.72,86.39L202.93,61.22L208.13,65.94L213.33,39.24L223.74,39.24L228.94,55.34L234.15,13.9L239.35,13.9L265.37,13.9L270.57,17.48L275.77,13.9L280.98,30.43L286.18,35.79L291.38,35.79L296.59,35.79L301.79,56.96L306.99,48.04L312.2,25.91L317.4,13.9L322.6,13.9L416.26,13.9L421.46,20.19L426.67,13.9L431.87,16.42L452.68,16.42L457.89,13.9L463.09,13.9L468.29,22.42L483.9,22.4L489.11,25.34L494.31,62.64L499.51,70.38L504.72,81.79L509.92,81.79L515.12,81.79L520.33,60.42L525.53,37.58L530.73,37.47L535.93,23.03L541.14,21.87L551.54,21.87L556.75,13.9L561.95,37.31L567.15,54.55L572.36,67.44L577.56,36.18L587.97,36.18L593.17,13.9L598.37,13.9L603.58,14.73L608.78,13.9L613.98,13.9L640,13.9" style="vector-effect: none; fill: none; stroke: rgb(61, 85, 94); stroke-opacity: 1; stroke-width: 2px; opacity: 1;"/></g><g class="points"/><g class="text"/></g><g class="trace scatter trace116acf" style="stroke-miterlimit: 2; opacity: 1;"><g class="fills"/><g class="errorbars"/><g class="lines"><path class="js-line" d="M0,13.9L10.41,13.9L15.61,45.47L20.81,60.06L26.02,56.33L31.22,30.35L36.42,30.35L41.63,30.35L46.83,25.71L52.03,13.9L57.24,13.9L62.44,13.9L67.64,28.37L83.25,28.42L88.46,31.62L93.66,45.16L98.86,84.25L104.07,125.6L109.27,125.6L114.47,125.6L119.67,144.94L124.88,133.39L130.08,147.64L135.28,165.17L140.49,189.23L150.89,189.23L156.1,195.23L161.3,175.15L166.5,150.23L171.71,108.65L176.91,90.03L187.32,90.03L192.52,80.14L197.72,64.08L202.93,51.64L208.13,49.13L213.33,25.13L223.74,25.13L228.94,38.13L234.15,16.13L239.35,13.9L275.77,13.9L280.98,30.63L286.18,32.99L291.38,32.99L296.59,32.99L301.79,54.78L306.99,52.42L312.2,33.22L317.4,17.17L322.6,22.3L333.01,22.3L338.21,13.9L416.26,13.9L421.46,17.75L426.67,14.93L431.87,15.32L452.68,15.32L457.89,13.9L463.09,13.9L468.29,23.98L473.5,23.98L478.7,26.03L483.9,26.03L489.11,15.82L494.31,47.32L499.51,54.66L504.72,63.56L509.92,63.56L515.12,63.56L520.33,46.79L525.53,22.52L530.73,28.52L535.93,13.9L541.14,19.08L551.54,19.08L556.75,17.8L561.95,27.77L567.15,31.73L572.36,39.38L577.56,13.9L598.37,13.9L603.58,17.38L608.78,13.9L613.98,13.9L640,13.9" style="vector-effect: none; fill: none; stroke: rgb(192, 249, 146); stroke-opacity: 1; stroke-width: 2px; opacity: 1;"/></g><g class="points"/><g class="text"/></g><g class="trace scatter trace267524" style="stroke-miterlimit: 2; opacity: 1;"><g class="fills"/><g class="errorbars"/><g class="lines"><path class="js-line" d="M0,13.9L5.2,13.9L10.41,22.71L15.61,50.26L20.81,64.19L26.02,61.04L31.22,50.29L41.63,50.29L46.83,40.63L52.03,13.9L57.24,13.9L62.44,13.9L67.64,33.03L78.05,33.03L83.25,38.8L88.46,41.02L93.66,66.91L104.07,166.75L109.27,166.75L114.47,166.75L119.67,199.56L124.88,190.49L130.08,213.25L135.28,249.74L140.49,262L150.89,262L156.1,264.1L161.3,242L166.5,212.37L171.71,138.89L176.91,97.25L187.32,97.25L192.52,84L197.72,74.62L202.93,55.87L208.13,56.79L213.33,42.45L223.74,42.45L228.94,46.26L234.15,13.9L239.35,13.9L244.55,14.86L249.76,13.9L265.37,13.9L270.57,14.82L275.77,13.9L280.98,25.95L286.18,35.26L291.38,35.26L296.59,35.26L301.79,58.43L306.99,53.09L312.2,27.19L317.4,13.9L322.6,13.9L338.21,13.9L343.41,20.27L348.62,13.9L353.82,13.9L416.26,13.9L421.46,15.33L431.87,13.9L437.07,13.9L478.7,13.9L483.9,15.65L489.11,17.85L494.31,49.93L499.51,65.32L504.72,91.27L515.12,91.27L520.33,72.66L525.53,48.29L530.73,51.79L535.93,34.42L541.14,33.32L551.54,33.32L556.75,24.53L561.95,49.53L567.15,67.82L572.36,80.35L577.56,46.96L587.97,46.96L593.17,15.45L598.37,13.9L603.58,14.38L613.98,13.9L619.19,13.9L640,13.9" style="vector-effect: none; fill: none; stroke: rgb(147, 223, 248); stroke-opacity: 1; stroke-width: 2px; opacity: 1;"/></g><g class="points"/><g class="text"/></g></g></g><g class="overplot"/><path class="xlines-above crisp" d="M0,0" style="fill: none;"/><path class="ylines-above crisp" d="M0,0" style="fill: none;"/><g class="overlines-above"/><g class="xaxislayer-above"><g class="xtick"><text text-anchor="middle" x="0" y="351" transform="translate(96.63,0)" style="font-family: 'Open Sans', verdana, arial, sans-serif; font-size: 12px; fill: rgb(42, 63, 95); fill-opacity: 1; white-space: pre; opacity: 1;"><tspan class="line" dy="0em" x="0" y="351">Oct 8</tspan><tspan class="line" dy="1.3em" x="0" y="351">2023</tspan></text></g><g class="xtick"><text text-anchor="middle" x="0" y="351" style="font-family: 'Open Sans', verdana, arial, sans-serif; font-size: 12px; fill: rgb(42, 63, 95); fill-opacity: 1; white-space: pre; opacity: 1;" transform="translate(169.47,0)">Oct 22</text></g><g class="xtick"><text text-anchor="middle" x="0" y="351" style="font-family: 'Open Sans', verdana, arial, sans-serif; font-size: 12px; fill: rgb(42, 63, 95); fill-opacity: 1; white-space: pre; opacity: 1;" transform="translate(242.32,0)">Nov 5</text></g><g class="xtick"><text text-anchor="middle" x="0" y="351" style="font-family: 'Open Sans', verdana, arial, sans-serif; font-size: 12px; fill: rgb(42, 63, 95); fill-opacity: 1; white-space: pre; opacity: 1;" transform="translate(315.16,0)">Nov 19</text></g><g class="xtick"><text text-anchor="middle" x="0" y="351" style="font-family: 'Open Sans', verdana, arial, sans-serif; font-size: 12px; fill: rgb(42, 63, 95); fill-opacity: 1; white-space: pre; opacity: 1;" transform="translate(388.01,0)">Dec 3</text></g><g class="xtick"><text text-anchor="middle" x="0" y="351" style="font-family: 'Open Sans', verdana, arial, sans-serif; font-size: 12px; fill: rgb(42, 63, 95); fill-opacity: 1; white-space: pre; opacity: 1;" transform="translate(460.85,0)">Dec 17</text></g><g class="xtick"><text text-anchor="middle" x="0" y="351" style="font-family: 'Open Sans', verdana, arial, sans-serif; font-size: 12px; fill: rgb(42, 63, 95); fill-opacity: 1; white-space: pre; opacity: 1;" transform="translate(533.7,0)">Dec 31</text></g><g class="xtick"><text text-anchor="middle" x="0" y="351" style="font-family: 'Open Sans', verdana, arial, sans-serif; font-size: 12px; fill: rgb(42, 63, 95); fill-opacity: 1; white-space: pre; opacity: 1;" transform="translate(606.54,0)"><tspan class="line" dy="0em" x="0" y="351">Jan 14</tspan><tspan class="line" dy="1.3em" x="0" y="351">2024</tspan></text></g><g class="xtick"><text text-anchor="middle" x="0" y="351" style="font-family: 'Open Sans', verdana, arial, sans-serif; font-size: 12px; fill: rgb(42, 63, 95); fill-opacity: 1; white-space: pre; opacity: 1;" transform="translate(679.39,0)">Jan 28</text></g></g><g class="yaxislayer-above"><g class="ytick"><text text-anchor="end" x="54" y="4.199999999999999" transform="translate(0,310)" style="font-family: 'Open Sans', verdana, arial, sans-serif; font-size: 12px; fill: rgb(42, 63, 95); fill-opacity: 1; white-space: pre; opacity: 1;">−3</text></g><g class="ytick"><text text-anchor="end" x="54" y="4.199999999999999" style="font-family: 'Open Sans', verdana, arial, sans-serif; font-size: 12px; fill: rgb(42, 63, 95); fill-opacity: 1; white-space: pre; opacity: 1;" transform="translate(0,270.65)">−2.5</text></g><g class="ytick"><text text-anchor="end" x="54" y="4.199999999999999" style="font-family: 'Open Sans', verdana, arial, sans-serif; font-size: 12px; fill: rgb(42, 63, 95); fill-opacity: 1; white-space: pre; opacity: 1;" transform="translate(0,231.3)">−2</text></g><g class="ytick"><text text-anchor="end" x="54" y="4.199999999999999" style="font-family: 'Open Sans', verdana, arial, sans-serif; font-size: 12px; fill: rgb(42, 63, 95); fill-opacity: 1; white-space: pre; opacity: 1;" transform="translate(0,191.95)">−1.5</text></g><g class="ytick"><text text-anchor="end" x="54" y="4.199999999999999" style="font-family: 'Open Sans', verdana, arial, sans-serif; font-size: 12px; fill: rgb(42, 63, 95); fill-opacity: 1; white-space: pre; opacity: 1;" transform="translate(0,152.6)">−1</text></g><g class="ytick"><text text-anchor="end" x="54" y="4.199999999999999" style="font-family: 'Open Sans', verdana, arial, sans-serif; font-size: 12px; fill: rgb(42, 63, 95); fill-opacity: 1; white-space: pre; opacity: 1;" transform="translate(0,113.25)">−0.5</text></g><g class="ytick"><text text-anchor="end" x="54" y="4.199999999999999" style="font-family: 'Open Sans', verdana, arial, sans-serif; font-size: 12px; fill: rgb(42, 63, 95); fill-opacity: 1; white-space: pre; opacity: 1;" transform="translate(0,73.9)">0</text></g></g><g class="overaxes-above"/></g></g><g class="polarlayer"/><g class="smithlayer"/><g class="ternarylayer"/><g class="geolayer"/><g class="funnelarealayer"/><g class="pielayer"/><g class="iciclelayer"/><g class="treemaplayer"/><g class="sunburstlayer"/><g class="glimages"/><defs id="topdefs-cf0f89"><g class="clips"/><clipPath id="legendcf0f89"><rect width="389" height="29" x="0" y="0"/></clipPath></defs><g class="layer-above"><g class="imagelayer"/><g class="shapelayer"/></g><g class="infolayer"><g class="legend" pointer-events="all" transform="translate(180.5,421)"><rect class="bg" shape-rendering="crispEdges" style="stroke: rgb(68, 68, 68); stroke-opacity: 1; fill: rgb(255, 255, 255); fill-opacity: 1; stroke-width: 0px;" width="389" height="29" x="0" y="0"/><g class="scrollbox" transform="" clip-path="url(#legendcf0f89)"><g class="groups" transform=""><g class="traces" transform="translate(0,14.5)" style="opacity: 1;"><text class="legendtext" text-anchor="start" x="40" y="4.29" style="font-family: 'Open Sans', verdana, arial, sans-serif; font-size: 11px; fill: rgb(42, 63, 95); fill-opacity: 1; white-space: pre;">Atchison70ACTIVE</text><g class="layers" style="opacity: 1;"><g class="legendfill"/><g class="legendlines"><path class="js-line" d="M5,0h30" style="fill: none; stroke: rgb(61, 85, 94); stroke-opacity: 1; stroke-width: 2px;"/></g><g class="legendsymbols"><g class="legendpoints"/></g></g><rect class="legendtoggle" x="0" y="-9.5" width="145.453125" height="19" style="fill: rgb(0, 0, 0); fill-opacity: 0;"/></g></g><g class="groups" transform="translate(147.953125,0)"><g class="traces" transform="translate(0,14.5)" style="opacity: 1;"><text class="legendtext" text-anchor="start" x="40" y="4.29" style="font-family: 'Open Sans', verdana, arial, sans-serif; font-size: 11px; fill: rgb(42, 63, 95); fill-opacity: 1; white-space: pre;">SAA Benchmark</text><g class="layers" style="opacity: 1;"><g class="legendfill"/><g class="legendlines"><path class="js-line" d="M5,0h30" style="fill: none; stroke: rgb(192, 249, 146); stroke-opacity: 1; stroke-width: 2px;"/></g><g class="legendsymbols"><g class="legendpoints"/></g></g><rect class="legendtoggle" x="0" y="-9.5" width="131.578125" height="19" style="fill: rgb(0, 0, 0); fill-opacity: 0;"/></g></g><g class="groups" transform="translate(282.03125,0)"><g class="traces" transform="translate(0,14.5)" style="opacity: 1;"><text class="legendtext" text-anchor="start" x="40" y="4.29" style="font-family: 'Open Sans', verdana, arial, sans-serif; font-size: 11px; fill: rgb(42, 63, 95); fill-opacity: 1; white-space: pre;">Peer Group</text><g class="layers" style="opacity: 1;"><g class="legendfill"/><g class="legendlines"><path class="js-line" d="M5,0h30" style="fill: none; stroke: rgb(147, 223, 248); stroke-opacity: 1; stroke-width: 2px;"/></g><g class="legendsymbols"><g class="legendpoints"/></g></g><rect class="legendtoggle" x="0" y="-9.5" width="104.40625" height="19" style="fill: rgb(0, 0, 0); fill-opacity: 0;"/></g></g></g><rect class="scrollbar" rx="20" ry="3" width="0" height="0" style="fill: rgb(128, 139, 164); fill-opacity: 1;" x="0" y="0"/></g><g class="g-gtitle"/><g class="g-xtitle"><text class="xtitle" x="375" y="393.909375" text-anchor="middle" style="font-family: 'Open Sans', verdana, arial, sans-serif; font-size: 14px; fill: rgb(42, 63, 95); opacity: 1; font-weight: normal; white-space: pre;">Date</text></g><g class="g-ytitle" transform="translate(13.7529296875,0)"><text class="ytitle" transform="rotate(-90,0.24687500000000284,199)" x="0.24687500000000284" y="199" text-anchor="middle" style="font-family: 'Open Sans', verdana, arial, sans-serif; font-size: 14px; fill: rgb(42, 63, 95); opacity: 1; font-weight: normal; white-space: pre;">Drawdown Return (%)</text></g></g></svg>