<svg class="main-svg" xmlns="http://www.w3.org/2000/svg" xmlns:xlink="http://www.w3.org/1999/xlink" width="700" height="450" style="" viewBox="0 0 700 450"><rect x="0" y="0" width="700" height="450" style="fill: rgb(255, 255, 255); fill-opacity: 1;"/><defs id="defs-17079f"><g class="clips"><clipPath id="clip17079fxyplot" class="plotclip"><rect width="640" height="278"/></clipPath><clipPath class="axesclip" id="clip17079fx"><rect x="55" y="0" width="640" height="450"/></clipPath><clipPath class="axesclip" id="clip17079fy"><rect x="0" y="60" width="700" height="278"/></clipPath><clipPath class="axesclip" id="clip17079fxy"><rect x="55" y="60" width="640" height="278"/></clipPath></g><g class="gradients"/><g class="patterns"/></defs><g class="bglayer"/><g class="layer-below"><g class="imagelayer"/><g class="shapelayer"/></g><g class="cartesianlayer"><g class="subplot xy"><g class="layer-subplot"><g class="shapelayer"/><g class="imagelayer"/></g><g class="minor-gridlayer"><g class="x"/><g class="y"/></g><g class="gridlayer"><g class="x"><path class="xgrid crisp" transform="translate(96.63,0)" d="M0,60v278" style="stroke: rgb(235, 240, 248); stroke-opacity: 1; stroke-width: 1px;"/><path class="xgrid crisp" transform="translate(169.47,0)" d="M0,60v278" style="stroke: rgb(235, 240, 248); stroke-opacity: 1; stroke-width: 1px;"/><path class="xgrid crisp" transform="translate(242.32,0)" d="M0,60v278" style="stroke: rgb(235, 240, 248); stroke-opacity: 1; stroke-width: 1px;"/><path class="xgrid crisp" transform="translate(315.16,0)" d="M0,60v278" style="stroke: rgb(235, 240, 248); stroke-opacity: 1; stroke-width: 1px;"/><path class="xgrid crisp" transform="translate(388.01,0)" d="M0,60v278" style="stroke: rgb(235, 240, 248); stroke-opacity: 1; stroke-width: 1px;"/><path class="xgrid crisp" transform="translate(460.85,0)" d="M0,60v278" style="stroke: rgb(235, 240, 248); stroke-opacity: 1; stroke-width: 1px;"/><path class="xgrid crisp" transform="translate(533.7,0)" d="M0,60v278" style="stroke: rgb(235, 240, 248); stroke-opacity: 1; stroke-width: 1px;"/><path class="xgrid crisp" transform="translate(606.54,0)" d="M0,60v278" style="stroke: rgb(235, 240, 248); stroke-opacity: 1; stroke-width: 1px;"/><path class="xgrid crisp" transform="translate(679.39,0)" d="M0,60v278" style="stroke: rgb(235, 240, 248); stroke-opacity: 1; stroke-width: 1px;"/></g><g class="y"><path class="ygrid crisp" transform="translate(0,336.71)" d="M55,0h640" style="stroke: rgb(235, 240, 248); stroke-opacity: 1; stroke-width: 1px;"/><path class="ygrid crisp" transform="translate(0,292.90999999999997)" d="M55,0h640" style="stroke: rgb(235, 240, 248); stroke-opacity: 1; stroke-width: 1px;"/><path class="ygrid crisp" transform="translate(0,249.11)" d="M55,0h640" style="stroke: rgb(235, 240, 248); stroke-opacity: 1; stroke-width: 1px;"/><path class="ygrid crisp" transform="translate(0,205.31)" d="M55,0h640" style="stroke: rgb(235, 240, 248); stroke-opacity: 1; stroke-width: 1px;"/><path class="ygrid crisp" transform="translate(0,161.5)" d="M55,0h640" style="stroke: rgb(235, 240, 248); stroke-opacity: 1; stroke-width: 1px;"/><path class="ygrid crisp" transform="translate(0,117.7)" d="M55,0h640" style="stroke: rgb(235, 240, 248); stroke-opacity: 1; stroke-width: 1px;"/></g></g><g class="zerolinelayer"><path class="yzl zl crisp" transform="translate(0,73.9)" d="M55,0h640" style="stroke: rgb(235, 240, 248); stroke-opacity: 1; stroke-width: 2px;"/></g><path class="xlines-below"/><path class="ylines-below"/><g class="overlines-below"/><g class="xaxislayer-below"/><g class="yaxislayer-below"/><g class="overaxes-below"/><g class="plot" transform="translate(55,60)" clip-path="url(#clip17079fxyplot)"><g class="scatterlayer mlayer"><g class="trace scatter tracecf7e92" style="stroke-miterlimit: 2; opacity: 1;"><g class="fills"/><g class="errorbars"/><g class="lines"><path class="js-line" d="M0,13.9L10.41,13.9L15.61,64.93L20.81,89.63L26.02,72.51L31.22,39.34L36.42,39.34L41.63,39.34L46.83,28.7L52.03,13.9L57.24,13.9L62.44,13.9L67.64,37.92L78.05,37.92L83.25,45.79L88.46,50.67L93.66,75.42L98.86,133.23L104.07,181.29L114.47,181.29L119.67,209L124.88,195.27L130.08,216.21L135.28,245.95L140.49,256.06L150.89,256.06L156.1,264.1L161.3,242.25L166.5,208.93L171.71,147.31L176.91,103.15L187.32,103.15L192.52,90.03L197.72,77.33L202.93,60.04L208.13,60.64L213.33,46.42L223.74,46.42L228.94,65.89L234.15,15.33L239.35,13.9L275.77,13.9L280.98,36.79L286.18,41.31L291.38,41.31L296.59,41.31L301.79,68.21L306.99,56.59L312.2,30.05L317.4,13.9L322.6,13.9L338.21,13.9L343.41,19.47L348.62,13.9L353.82,13.9L426.67,13.9L431.87,17.52L452.68,17.52L457.89,13.9L463.09,13.9L468.29,17.35L483.9,17.35L489.11,13.9L494.31,58.4L499.51,71.1L504.72,85.17L509.92,85.17L515.12,85.17L520.33,73.17L525.53,48.86L530.73,61.7L535.93,38.12L541.14,40.66L551.54,40.66L556.75,31.03L561.95,69.3L567.15,92.28L572.36,105.93L577.56,69.68L587.97,69.68L593.17,43.05L598.37,20.43L603.58,22.28L608.78,13.9L613.98,13.9L640,13.9" style="vector-effect: none; fill: none; stroke: rgb(61, 85, 94); stroke-opacity: 1; stroke-width: 2px; opacity: 1;"/></g><g class="points"/><g class="text"/></g><g class="trace scatter trace14d717" style="stroke-miterlimit: 2; opacity: 1;"><g class="fills"/><g class="errorbars"/><g class="lines"><path class="js-line" d="M0,13.9L10.41,13.9L15.61,53.92L20.81,75.97L26.02,64.44L31.22,30.56L36.42,30.56L41.63,30.56L46.83,21.37L52.03,13.9L57.24,13.9L62.44,13.9L67.64,34.57L78.05,34.57L83.25,36.97L88.46,44.77L93.66,65.12L104.07,167.72L109.27,167.72L114.47,167.72L119.67,193.32L124.88,180.59L130.08,200.32L140.49,250.89L145.69,250.89L150.89,250.89L156.1,262.05L161.3,242.73L166.5,212.05L171.71,155.3L176.91,125.72L187.32,125.72L192.52,112.83L202.93,73.5L208.13,68.88L213.33,49.95L218.54,49.95L223.74,49.95L228.94,68.05L234.15,34.76L239.35,13.9L275.77,13.9L280.98,37.58L286.18,42.11L291.38,42.11L296.59,42.11L301.79,69.94L306.99,63.22L312.2,35.08L317.4,15.51L322.6,26.31L333.01,26.31L338.21,13.9L343.41,16.69L348.62,13.9L463.09,13.9L468.29,24.49L483.9,24.49L489.11,13.9L494.31,54.76L499.51,64.76L504.72,76.84L509.92,76.84L515.12,76.84L520.33,61.82L525.53,29.44L530.73,41.18L535.93,19.39L541.14,22.36L556.75,21.71L561.95,37.88L567.15,44.84L572.36,56.91L577.56,22.63L582.76,22.63L587.97,22.63L593.17,13.9L598.37,13.9L603.58,18.39L608.78,13.9L613.98,13.9L640,13.9" style="vector-effect: none; fill: none; stroke: rgb(192, 249, 146); stroke-opacity: 1; stroke-width: 2px; opacity: 1;"/></g><g class="points"/><g class="text"/></g><g class="trace scatter trace936060" style="stroke-miterlimit: 2; opacity: 1;"><g class="fills"/><g class="errorbars"/><g class="lines"><path class="js-line" d="M0,13.9L5.2,13.9L10.41,18.07L15.61,47.6L20.81,60.78L31.22,48.84L36.42,48.84L41.63,48.84L46.83,35.37L52.03,13.9L57.24,13.9L62.44,13.9L67.64,27.55L78.05,27.55L83.25,32.96L88.46,40.57L93.66,67.15L104.07,155.64L109.27,155.64L114.47,155.64L119.67,180.88L124.88,169.72L130.08,190.52L135.28,221.4L140.49,230.89L150.89,230.89L156.1,228.89L161.3,213.12L166.5,188L171.71,120.65L176.91,79.13L187.32,79.13L192.52,68.6L197.72,57.17L202.93,36.7L208.13,35.49L213.33,24.75L223.74,24.75L228.94,29.76L234.15,13.9L239.35,13.9L275.77,13.9L280.98,27.88L286.18,40.55L291.38,40.55L296.59,40.55L301.79,56.21L306.99,49.07L312.2,22.6L317.4,13.9L322.6,13.9L338.21,13.9L343.41,15.07L348.62,13.9L353.82,13.9L463.09,13.9L468.29,17.58L478.7,17.58L483.9,18.59L489.11,23.09L494.31,48.08L499.51,58.13L504.72,88.05L515.12,88.05L520.33,71.94L525.53,52.79L530.73,55.44L535.93,40.22L541.14,34.53L551.54,34.53L556.75,28.47L567.15,74.12L572.36,85.92L577.56,59.61L582.76,59.61L587.97,59.61L593.17,31.2L598.37,14.75L603.58,16.5L608.78,13.9L613.98,13.9L640,13.9" style="vector-effect: none; fill: none; stroke: rgb(147, 223, 248); stroke-opacity: 1; stroke-width: 2px; opacity: 1;"/></g><g class="points"/><g class="text"/></g></g></g><g class="overplot"/><path class="xlines-above crisp" d="M0,0" style="fill: none;"/><path class="ylines-above crisp" d="M0,0" style="fill: none;"/><g class="overlines-above"/><g class="xaxislayer-above"><g class="xtick"><text text-anchor="middle" x="0" y="351" transform="translate(96.63,0)" style="font-family: 'Open Sans', verdana, arial, sans-serif; font-size: 12px; fill: rgb(42, 63, 95); fill-opacity: 1; white-space: pre; opacity: 1;"><tspan class="line" dy="0em" x="0" y="351">Oct 8</tspan><tspan class="line" dy="1.3em" x="0" y="351">2023</tspan></text></g><g class="xtick"><text text-anchor="middle" x="0" y="351" style="font-family: 'Open Sans', verdana, arial, sans-serif; font-size: 12px; fill: rgb(42, 63, 95); fill-opacity: 1; white-space: pre; opacity: 1;" transform="translate(169.47,0)">Oct 22</text></g><g class="xtick"><text text-anchor="middle" x="0" y="351" style="font-family: 'Open Sans', verdana, arial, sans-serif; font-size: 12px; fill: rgb(42, 63, 95); fill-opacity: 1; white-space: pre; opacity: 1;" transform="translate(242.32,0)">Nov 5</text></g><g class="xtick"><text text-anchor="middle" x="0" y="351" style="font-family: 'Open Sans', verdana, arial, sans-serif; font-size: 12px; fill: rgb(42, 63, 95); fill-opacity: 1; white-space: pre; opacity: 1;" transform="translate(315.16,0)">Nov 19</text></g><g class="xtick"><text text-anchor="middle" x="0" y="351" style="font-family: 'Open Sans', verdana, arial, sans-serif; font-size: 12px; fill: rgb(42, 63, 95); fill-opacity: 1; white-space: pre; opacity: 1;" transform="translate(388.01,0)">Dec 3</text></g><g class="xtick"><text text-anchor="middle" x="0" y="351" style="font-family: 'Open Sans', verdana, arial, sans-serif; font-size: 12px; fill: rgb(42, 63, 95); fill-opacity: 1; white-space: pre; opacity: 1;" transform="translate(460.85,0)">Dec 17</text></g><g class="xtick"><text text-anchor="middle" x="0" y="351" style="font-family: 'Open Sans', verdana, arial, sans-serif; font-size: 12px; fill: rgb(42, 63, 95); fill-opacity: 1; white-space: pre; opacity: 1;" transform="translate(533.7,0)">Dec 31</text></g><g class="xtick"><text text-anchor="middle" x="0" y="351" style="font-family: 'Open Sans', verdana, arial, sans-serif; font-size: 12px; fill: rgb(42, 63, 95); fill-opacity: 1; white-space: pre; opacity: 1;" transform="translate(606.54,0)"><tspan class="line" dy="0em" x="0" y="351">Jan 14</tspan><tspan class="line" dy="1.3em" x="0" y="351">2024</tspan></text></g><g class="xtick"><text text-anchor="middle" x="0" y="351" style="font-family: 'Open Sans', verdana, arial, sans-serif; font-size: 12px; fill: rgb(42, 63, 95); fill-opacity: 1; white-space: pre; opacity: 1;" transform="translate(679.39,0)">Jan 28</text></g></g><g class="yaxislayer-above"><g class="ytick"><text text-anchor="end" x="54" y="4.199999999999999" transform="translate(0,336.71)" style="font-family: 'Open Sans', verdana, arial, sans-serif; font-size: 12px; fill: rgb(42, 63, 95); fill-opacity: 1; white-space: pre; opacity: 1;">−3</text></g><g class="ytick"><text text-anchor="end" x="54" y="4.199999999999999" style="font-family: 'Open Sans', verdana, arial, sans-serif; font-size: 12px; fill: rgb(42, 63, 95); fill-opacity: 1; white-space: pre; opacity: 1;" transform="translate(0,292.90999999999997)">−2.5</text></g><g class="ytick"><text text-anchor="end" x="54" y="4.199999999999999" style="font-family: 'Open Sans', verdana, arial, sans-serif; font-size: 12px; fill: rgb(42, 63, 95); fill-opacity: 1; white-space: pre; opacity: 1;" transform="translate(0,249.11)">−2</text></g><g class="ytick"><text text-anchor="end" x="54" y="4.199999999999999" style="font-family: 'Open Sans', verdana, arial, sans-serif; font-size: 12px; fill: rgb(42, 63, 95); fill-opacity: 1; white-space: pre; opacity: 1;" transform="translate(0,205.31)">−1.5</text></g><g class="ytick"><text text-anchor="end" x="54" y="4.199999999999999" style="font-family: 'Open Sans', verdana, arial, sans-serif; font-size: 12px; fill: rgb(42, 63, 95); fill-opacity: 1; white-space: pre; opacity: 1;" transform="translate(0,161.5)">−1</text></g><g class="ytick"><text text-anchor="end" x="54" y="4.199999999999999" style="font-family: 'Open Sans', verdana, arial, sans-serif; font-size: 12px; fill: rgb(42, 63, 95); fill-opacity: 1; white-space: pre; opacity: 1;" transform="translate(0,117.7)">−0.5</text></g><g class="ytick"><text text-anchor="end" x="54" y="4.199999999999999" style="font-family: 'Open Sans', verdana, arial, sans-serif; font-size: 12px; fill: rgb(42, 63, 95); fill-opacity: 1; white-space: pre; opacity: 1;" transform="translate(0,73.9)">0</text></g></g><g class="overaxes-above"/></g></g><g class="polarlayer"/><g class="smithlayer"/><g class="ternarylayer"/><g class="geolayer"/><g class="funnelarealayer"/><g class="pielayer"/><g class="iciclelayer"/><g class="treemaplayer"/><g class="sunburstlayer"/><g class="glimages"/><defs id="topdefs-17079f"><g class="clips"/><clipPath id="legend17079f"><rect width="369" height="29" x="0" y="0"/></clipPath></defs><g class="layer-above"><g class="imagelayer"/><g class="shapelayer"/></g><g class="infolayer"><g class="legend" pointer-events="all" transform="translate(190.5,421)"><rect class="bg" shape-rendering="crispEdges" width="369" height="29" x="0" y="0" style="stroke: rgb(68, 68, 68); stroke-opacity: 1; fill: rgb(255, 255, 255); fill-opacity: 1; stroke-width: 0px;"/><g class="scrollbox" transform="" clip-path="url(#legend17079f)"><g class="groups" transform=""><g class="traces" transform="translate(0,14.5)" style="opacity: 1;"><text class="legendtext" text-anchor="start" x="40" y="4.29" style="font-family: 'Open Sans', verdana, arial, sans-serif; font-size: 11px; fill: rgb(42, 63, 95); fill-opacity: 1; white-space: pre;">Atchison55ETF</text><g class="layers" style="opacity: 1;"><g class="legendfill"/><g class="legendlines"><path class="js-line" d="M5,0h30" style="fill: none; stroke: rgb(61, 85, 94); stroke-opacity: 1; stroke-width: 2px;"/></g><g class="legendsymbols"><g class="legendpoints"/></g></g><rect class="legendtoggle" x="0" y="-9.5" width="125.046875" height="19" style="fill: rgb(0, 0, 0); fill-opacity: 0;"/></g></g><g class="groups" transform="translate(127.546875,0)"><g class="traces" transform="translate(0,14.5)" style="opacity: 1;"><text class="legendtext" text-anchor="start" x="40" y="4.29" style="font-family: 'Open Sans', verdana, arial, sans-serif; font-size: 11px; fill: rgb(42, 63, 95); fill-opacity: 1; white-space: pre;">SAA Benchmark</text><g class="layers" style="opacity: 1;"><g class="legendfill"/><g class="legendlines"><path class="js-line" d="M5,0h30" style="fill: none; stroke: rgb(192, 249, 146); stroke-opacity: 1; stroke-width: 2px;"/></g><g class="legendsymbols"><g class="legendpoints"/></g></g><rect class="legendtoggle" x="0" y="-9.5" width="131.578125" height="19" style="fill: rgb(0, 0, 0); fill-opacity: 0;"/></g></g><g class="groups" transform="translate(261.625,0)"><g class="traces" transform="translate(0,14.5)" style="opacity: 1;"><text class="legendtext" text-anchor="start" x="40" y="4.29" style="font-family: 'Open Sans', verdana, arial, sans-serif; font-size: 11px; fill: rgb(42, 63, 95); fill-opacity: 1; white-space: pre;">Peer Group</text><g class="layers" style="opacity: 1;"><g class="legendfill"/><g class="legendlines"><path class="js-line" d="M5,0h30" style="fill: none; stroke: rgb(147, 223, 248); stroke-opacity: 1; stroke-width: 2px;"/></g><g class="legendsymbols"><g class="legendpoints"/></g></g><rect class="legendtoggle" x="0" y="-9.5" width="104.40625" height="19" style="fill: rgb(0, 0, 0); fill-opacity: 0;"/></g></g></g><rect class="scrollbar" rx="20" ry="3" width="0" height="0" x="0" y="0" style="fill: rgb(128, 139, 164); fill-opacity: 1;"/></g><g class="g-gtitle"/><g class="g-xtitle"><text class="xtitle" x="375" y="393.909375" text-anchor="middle" style="font-family: 'Open Sans', verdana, arial, sans-serif; font-size: 14px; fill: rgb(42, 63, 95); opacity: 1; font-weight: normal; white-space: pre;">Date</text></g><g class="g-ytitle" transform="translate(13.7529296875,0)"><text class="ytitle" transform="rotate(-90,0.24687500000000284,199)" x="0.24687500000000284" y="199" text-anchor="middle" style="font-family: 'Open Sans', verdana, arial, sans-serif; font-size: 14px; fill: rgb(42, 63, 95); opacity: 1; font-weight: normal; white-space: pre;">Drawdown Return (%)</text></g></g></svg>