<svg class="main-svg" xmlns="http://www.w3.org/2000/svg" xmlns:xlink="http://www.w3.org/1999/xlink" width="700" height="450" style="" viewBox="0 0 700 450"><rect x="0" y="0" width="700" height="450" style="fill: rgb(255, 255, 255); fill-opacity: 1;"/><defs id="defs-5042d1"><g class="clips"><clipPath id="clip5042d1xyplot" class="plotclip"><rect width="640" height="278"/></clipPath><clipPath class="axesclip" id="clip5042d1x"><rect x="55" y="0" width="640" height="450"/></clipPath><clipPath class="axesclip" id="clip5042d1y"><rect x="0" y="60" width="700" height="278"/></clipPath><clipPath class="axesclip" id="clip5042d1xy"><rect x="55" y="60" width="640" height="278"/></clipPath></g><g class="gradients"/><g class="patterns"/></defs><g class="bglayer"/><g class="layer-below"><g class="imagelayer"/><g class="shapelayer"/></g><g class="cartesianlayer"><g class="subplot xy"><g class="layer-subplot"><g class="shapelayer"/><g class="imagelayer"/></g><g class="minor-gridlayer"><g class="x"/><g class="y"/></g><g class="gridlayer"><g class="x"><path class="xgrid crisp" transform="translate(96.63,0)" d="M0,60v278" style="stroke: rgb(235, 240, 248); stroke-opacity: 1; stroke-width: 1px;"/><path class="xgrid crisp" transform="translate(169.47,0)" d="M0,60v278" style="stroke: rgb(235, 240, 248); stroke-opacity: 1; stroke-width: 1px;"/><path class="xgrid crisp" transform="translate(242.32,0)" d="M0,60v278" style="stroke: rgb(235, 240, 248); stroke-opacity: 1; stroke-width: 1px;"/><path class="xgrid crisp" transform="translate(315.16,0)" d="M0,60v278" style="stroke: rgb(235, 240, 248); stroke-opacity: 1; stroke-width: 1px;"/><path class="xgrid crisp" transform="translate(388.01,0)" d="M0,60v278" style="stroke: rgb(235, 240, 248); stroke-opacity: 1; stroke-width: 1px;"/><path class="xgrid crisp" transform="translate(460.85,0)" d="M0,60v278" style="stroke: rgb(235, 240, 248); stroke-opacity: 1; stroke-width: 1px;"/><path class="xgrid crisp" transform="translate(533.7,0)" d="M0,60v278" style="stroke: rgb(235, 240, 248); stroke-opacity: 1; stroke-width: 1px;"/><path class="xgrid crisp" transform="translate(606.54,0)" d="M0,60v278" style="stroke: rgb(235, 240, 248); stroke-opacity: 1; stroke-width: 1px;"/><path class="xgrid crisp" transform="translate(679.39,0)" d="M0,60v278" style="stroke: rgb(235, 240, 248); stroke-opacity: 1; stroke-width: 1px;"/></g><g class="y"><path class="ygrid crisp" transform="translate(0,299.51)" d="M55,0h640" style="stroke: rgb(235, 240, 248); stroke-opacity: 1; stroke-width: 1px;"/><path class="ygrid crisp" transform="translate(0,254.39)" d="M55,0h640" style="stroke: rgb(235, 240, 248); stroke-opacity: 1; stroke-width: 1px;"/><path class="ygrid crisp" transform="translate(0,209.26)" d="M55,0h640" style="stroke: rgb(235, 240, 248); stroke-opacity: 1; stroke-width: 1px;"/><path class="ygrid crisp" transform="translate(0,164.14)" d="M55,0h640" style="stroke: rgb(235, 240, 248); stroke-opacity: 1; stroke-width: 1px;"/><path class="ygrid crisp" transform="translate(0,119.02000000000001)" d="M55,0h640" style="stroke: rgb(235, 240, 248); stroke-opacity: 1; stroke-width: 1px;"/></g></g><g class="zerolinelayer"><path class="yzl zl crisp" transform="translate(0,73.9)" d="M55,0h640" style="stroke: rgb(235, 240, 248); stroke-opacity: 1; stroke-width: 2px;"/></g><path class="xlines-below"/><path class="ylines-below"/><g class="overlines-below"/><g class="xaxislayer-below"/><g class="yaxislayer-below"/><g class="overaxes-below"/><g class="plot" transform="translate(55,60)" clip-path="url(#clip5042d1xyplot)"><g class="scatterlayer mlayer"><g class="trace scatter trace8a631a" style="stroke-miterlimit: 2; opacity: 1;"><g class="fills"/><g class="errorbars"/><g class="lines"><path class="js-line" d="M0,13.9L10.41,13.9L15.61,62.05L20.81,79.42L26.02,66.99L31.22,35.24L36.42,35.24L41.63,35.24L46.83,22.97L52.03,13.9L57.24,13.9L62.44,13.9L67.64,35.22L78.05,35.22L83.25,41.06L88.46,50.36L93.66,78.55L98.86,135.21L104.07,177.96L114.47,177.96L119.67,201.49L124.88,186.93L130.08,211.68L135.28,254.83L140.49,259.71L150.89,259.71L156.1,264.1L161.3,250.18L166.5,218.18L171.71,158.11L176.91,121.53L187.32,121.53L192.52,105.62L197.72,93.88L202.93,62.53L208.13,63.86L213.33,44.59L223.74,44.59L228.94,60.76L234.15,19.47L239.35,13.9L275.77,13.9L280.98,34.1L286.18,41.07L291.38,41.07L296.59,41.07L301.79,62.82L306.99,50.28L312.2,23.26L317.4,13.9L322.6,13.9L426.67,13.9L431.87,17.4L452.68,17.4L457.89,13.9L463.09,13.9L468.29,24.25L483.9,24.22L489.11,26.4L494.31,63.67L499.51,71.69L504.72,87.36L509.92,87.36L515.12,87.36L520.33,70.84L525.53,41.83L530.73,46.06L535.93,25.26L541.14,25.02L551.54,25.02L556.75,13.9L561.95,42.49L567.15,57.3L572.36,67.22L577.56,33.85L587.97,33.85L593.17,13.9L598.37,13.9L603.58,15.68L608.78,13.9L613.98,13.9L640,13.9" style="vector-effect: none; fill: none; stroke: rgb(61, 85, 94); stroke-opacity: 1; stroke-width: 2px; opacity: 1;"/></g><g class="points"/><g class="text"/></g><g class="trace scatter traceaa715c" style="stroke-miterlimit: 2; opacity: 1;"><g class="fills"/><g class="errorbars"/><g class="lines"><path class="js-line" d="M0,13.9L10.41,13.9L15.61,51.36L20.81,72.41L26.02,62.25L31.22,32.35L36.42,32.35L41.63,32.35L46.83,24.07L52.03,13.9L57.24,13.9L62.44,13.9L67.64,33.73L78.05,33.73L83.25,34.7L88.46,42.26L93.66,61.64L104.07,155.23L109.27,155.23L114.47,155.23L119.67,178.71L124.88,163.53L130.08,181.23L135.28,206.94L140.49,228.54L150.89,228.54L156.1,239.59L161.3,221.7L166.5,193.86L171.71,140.86L176.91,114.25L187.32,114.25L192.52,102.4L202.93,64.85L208.13,59.27L213.33,41.35L218.54,41.35L223.74,41.35L228.94,57.71L234.15,30.32L239.35,13.9L275.77,13.9L280.98,35.06L286.18,39.67L291.38,39.67L296.59,39.67L301.79,64.93L306.99,57.85L312.2,30.42L317.4,13.9L322.6,23.44L333.01,23.44L338.21,13.9L343.41,14.99L348.62,13.9L463.09,13.9L468.29,24.2L473.5,24.2L478.7,25.55L483.9,25.55L489.11,15.13L494.31,53.85L499.51,62.46L504.72,75.04L509.92,75.04L515.12,75.04L520.33,61.17L525.53,30.61L530.73,40.16L535.93,19.84L541.14,22.8L551.54,22.8L556.75,21.06L561.95,36.63L567.15,44.78L572.36,56.32L577.56,25.54L587.97,25.54L593.17,13.9L598.37,13.9L603.58,18.89L608.78,13.9L613.98,13.9L640,13.9" style="vector-effect: none; fill: none; stroke: rgb(192, 249, 146); stroke-opacity: 1; stroke-width: 2px; opacity: 1;"/></g><g class="points"/><g class="text"/></g><g class="trace scatter trace2930f9" style="stroke-miterlimit: 2; opacity: 1;"><g class="fills"/><g class="errorbars"/><g class="lines"><path class="js-line" d="M0,13.9L5.2,13.9L10.41,18.19L15.61,48.61L20.81,62.19L31.22,49.9L36.42,49.9L41.63,49.9L46.83,36.02L52.03,13.9L57.24,13.9L62.44,13.9L67.64,27.96L78.05,27.96L83.25,33.53L88.46,41.38L93.66,68.75L104.07,159.91L109.27,159.91L114.47,159.91L119.67,185.91L124.88,174.42L130.08,195.84L135.28,227.65L140.49,237.42L150.89,237.42L156.1,235.37L161.3,219.12L166.5,193.25L171.71,123.87L176.91,81.1L187.32,81.1L192.52,70.25L197.72,58.48L202.93,37.39L208.13,36.14L213.33,25.08L223.74,25.08L228.94,30.24L234.15,13.9L239.35,13.9L275.77,13.9L280.98,28.3L286.18,41.36L291.38,41.36L296.59,41.36L301.79,57.48L306.99,50.13L312.2,22.86L317.4,13.9L322.6,13.9L338.21,13.9L343.41,15.1L348.62,13.9L353.82,13.9L463.09,13.9L468.29,17.7L478.7,17.7L483.9,18.73L489.11,23.36L494.31,49.11L499.51,59.46L504.72,90.28L515.12,90.28L520.33,73.69L525.53,53.96L530.73,56.69L535.93,41.02L541.14,35.15L551.54,35.15L556.75,28.91L567.15,75.93L572.36,88.09L577.56,60.98L582.76,60.98L587.97,60.98L593.17,31.72L598.37,14.77L603.58,16.58L608.78,13.9L613.98,13.9L640,13.9" style="vector-effect: none; fill: none; stroke: rgb(147, 223, 248); stroke-opacity: 1; stroke-width: 2px; opacity: 1;"/></g><g class="points"/><g class="text"/></g></g></g><g class="overplot"/><path class="xlines-above crisp" d="M0,0" style="fill: none;"/><path class="ylines-above crisp" d="M0,0" style="fill: none;"/><g class="overlines-above"/><g class="xaxislayer-above"><g class="xtick"><text text-anchor="middle" x="0" y="351" transform="translate(96.63,0)" style="font-family: 'Open Sans', verdana, arial, sans-serif; font-size: 12px; fill: rgb(42, 63, 95); fill-opacity: 1; white-space: pre; opacity: 1;"><tspan class="line" dy="0em" x="0" y="351">Oct 8</tspan><tspan class="line" dy="1.3em" x="0" y="351">2023</tspan></text></g><g class="xtick"><text text-anchor="middle" x="0" y="351" style="font-family: 'Open Sans', verdana, arial, sans-serif; font-size: 12px; fill: rgb(42, 63, 95); fill-opacity: 1; white-space: pre; opacity: 1;" transform="translate(169.47,0)">Oct 22</text></g><g class="xtick"><text text-anchor="middle" x="0" y="351" style="font-family: 'Open Sans', verdana, arial, sans-serif; font-size: 12px; fill: rgb(42, 63, 95); fill-opacity: 1; white-space: pre; opacity: 1;" transform="translate(242.32,0)">Nov 5</text></g><g class="xtick"><text text-anchor="middle" x="0" y="351" style="font-family: 'Open Sans', verdana, arial, sans-serif; font-size: 12px; fill: rgb(42, 63, 95); fill-opacity: 1; white-space: pre; opacity: 1;" transform="translate(315.16,0)">Nov 19</text></g><g class="xtick"><text text-anchor="middle" x="0" y="351" style="font-family: 'Open Sans', verdana, arial, sans-serif; font-size: 12px; fill: rgb(42, 63, 95); fill-opacity: 1; white-space: pre; opacity: 1;" transform="translate(388.01,0)">Dec 3</text></g><g class="xtick"><text text-anchor="middle" x="0" y="351" style="font-family: 'Open Sans', verdana, arial, sans-serif; font-size: 12px; fill: rgb(42, 63, 95); fill-opacity: 1; white-space: pre; opacity: 1;" transform="translate(460.85,0)">Dec 17</text></g><g class="xtick"><text text-anchor="middle" x="0" y="351" style="font-family: 'Open Sans', verdana, arial, sans-serif; font-size: 12px; fill: rgb(42, 63, 95); fill-opacity: 1; white-space: pre; opacity: 1;" transform="translate(533.7,0)">Dec 31</text></g><g class="xtick"><text text-anchor="middle" x="0" y="351" style="font-family: 'Open Sans', verdana, arial, sans-serif; font-size: 12px; fill: rgb(42, 63, 95); fill-opacity: 1; white-space: pre; opacity: 1;" transform="translate(606.54,0)"><tspan class="line" dy="0em" x="0" y="351">Jan 14</tspan><tspan class="line" dy="1.3em" x="0" y="351">2024</tspan></text></g><g class="xtick"><text text-anchor="middle" x="0" y="351" style="font-family: 'Open Sans', verdana, arial, sans-serif; font-size: 12px; fill: rgb(42, 63, 95); fill-opacity: 1; white-space: pre; opacity: 1;" transform="translate(679.39,0)">Jan 28</text></g></g><g class="yaxislayer-above"><g class="ytick"><text text-anchor="end" x="54" y="4.199999999999999" transform="translate(0,299.51)" style="font-family: 'Open Sans', verdana, arial, sans-serif; font-size: 12px; fill: rgb(42, 63, 95); fill-opacity: 1; white-space: pre; opacity: 1;">−2.5</text></g><g class="ytick"><text text-anchor="end" x="54" y="4.199999999999999" style="font-family: 'Open Sans', verdana, arial, sans-serif; font-size: 12px; fill: rgb(42, 63, 95); fill-opacity: 1; white-space: pre; opacity: 1;" transform="translate(0,254.39)">−2</text></g><g class="ytick"><text text-anchor="end" x="54" y="4.199999999999999" style="font-family: 'Open Sans', verdana, arial, sans-serif; font-size: 12px; fill: rgb(42, 63, 95); fill-opacity: 1; white-space: pre; opacity: 1;" transform="translate(0,209.26)">−1.5</text></g><g class="ytick"><text text-anchor="end" x="54" y="4.199999999999999" style="font-family: 'Open Sans', verdana, arial, sans-serif; font-size: 12px; fill: rgb(42, 63, 95); fill-opacity: 1; white-space: pre; opacity: 1;" transform="translate(0,164.14)">−1</text></g><g class="ytick"><text text-anchor="end" x="54" y="4.199999999999999" style="font-family: 'Open Sans', verdana, arial, sans-serif; font-size: 12px; fill: rgb(42, 63, 95); fill-opacity: 1; white-space: pre; opacity: 1;" transform="translate(0,119.02000000000001)">−0.5</text></g><g class="ytick"><text text-anchor="end" x="54" y="4.199999999999999" style="font-family: 'Open Sans', verdana, arial, sans-serif; font-size: 12px; fill: rgb(42, 63, 95); fill-opacity: 1; white-space: pre; opacity: 1;" transform="translate(0,73.9)">0</text></g></g><g class="overaxes-above"/></g></g><g class="polarlayer"/><g class="smithlayer"/><g class="ternarylayer"/><g class="geolayer"/><g class="funnelarealayer"/><g class="pielayer"/><g class="iciclelayer"/><g class="treemaplayer"/><g class="sunburstlayer"/><g class="glimages"/><defs id="topdefs-5042d1"><g class="clips"/><clipPath id="legend5042d1"><rect width="389" height="29" x="0" y="0"/></clipPath></defs><g class="layer-above"><g class="imagelayer"/><g class="shapelayer"/></g><g class="infolayer"><g class="legend" pointer-events="all" transform="translate(180.5,421)"><rect class="bg" shape-rendering="crispEdges" style="stroke: rgb(68, 68, 68); stroke-opacity: 1; fill: rgb(255, 255, 255); fill-opacity: 1; stroke-width: 0px;" width="389" height="29" x="0" y="0"/><g class="scrollbox" transform="" clip-path="url(#legend5042d1)"><g class="groups" transform=""><g class="traces" transform="translate(0,14.5)" style="opacity: 1;"><text class="legendtext" text-anchor="start" x="40" y="4.29" style="font-family: 'Open Sans', verdana, arial, sans-serif; font-size: 11px; fill: rgb(42, 63, 95); fill-opacity: 1; white-space: pre;">Atchison55ACTIVE</text><g class="layers" style="opacity: 1;"><g class="legendfill"/><g class="legendlines"><path class="js-line" d="M5,0h30" style="fill: none; stroke: rgb(61, 85, 94); stroke-opacity: 1; stroke-width: 2px;"/></g><g class="legendsymbols"><g class="legendpoints"/></g></g><rect class="legendtoggle" x="0" y="-9.5" width="145.453125" height="19" style="fill: rgb(0, 0, 0); fill-opacity: 0;"/></g></g><g class="groups" transform="translate(147.953125,0)"><g class="traces" transform="translate(0,14.5)" style="opacity: 1;"><text class="legendtext" text-anchor="start" x="40" y="4.29" style="font-family: 'Open Sans', verdana, arial, sans-serif; font-size: 11px; fill: rgb(42, 63, 95); fill-opacity: 1; white-space: pre;">SAA Benchmark</text><g class="layers" style="opacity: 1;"><g class="legendfill"/><g class="legendlines"><path class="js-line" d="M5,0h30" style="fill: none; stroke: rgb(192, 249, 146); stroke-opacity: 1; stroke-width: 2px;"/></g><g class="legendsymbols"><g class="legendpoints"/></g></g><rect class="legendtoggle" x="0" y="-9.5" width="131.578125" height="19" style="fill: rgb(0, 0, 0); fill-opacity: 0;"/></g></g><g class="groups" transform="translate(282.03125,0)"><g class="traces" transform="translate(0,14.5)" style="opacity: 1;"><text class="legendtext" text-anchor="start" x="40" y="4.29" style="font-family: 'Open Sans', verdana, arial, sans-serif; font-size: 11px; fill: rgb(42, 63, 95); fill-opacity: 1; white-space: pre;">Peer Group</text><g class="layers" style="opacity: 1;"><g class="legendfill"/><g class="legendlines"><path class="js-line" d="M5,0h30" style="fill: none; stroke: rgb(147, 223, 248); stroke-opacity: 1; stroke-width: 2px;"/></g><g class="legendsymbols"><g class="legendpoints"/></g></g><rect class="legendtoggle" x="0" y="-9.5" width="104.40625" height="19" style="fill: rgb(0, 0, 0); fill-opacity: 0;"/></g></g></g><rect class="scrollbar" rx="20" ry="3" width="0" height="0" style="fill: rgb(128, 139, 164); fill-opacity: 1;" x="0" y="0"/></g><g class="g-gtitle"/><g class="g-xtitle"><text class="xtitle" x="375" y="393.909375" text-anchor="middle" style="font-family: 'Open Sans', verdana, arial, sans-serif; font-size: 14px; fill: rgb(42, 63, 95); opacity: 1; font-weight: normal; white-space: pre;">Date</text></g><g class="g-ytitle" transform="translate(13.7529296875,0)"><text class="ytitle" transform="rotate(-90,0.24687500000000284,199)" x="0.24687500000000284" y="199" text-anchor="middle" style="font-family: 'Open Sans', verdana, arial, sans-serif; font-size: 14px; fill: rgb(42, 63, 95); opacity: 1; font-weight: normal; white-space: pre;">Drawdown Return (%)</text></g></g></svg>